<?xml version="1.0" encoding="utf-8"?>
<svg width="1024" height="1024" viewBox="0 0 1024 1024" fill="none" xmlns="http://www.w3.org/2000/svg" xmlns:bx="https://boxy-svg.com"><defs><bx:export><bx:file format="png" path="adaptive-icon.png" excluded="true"/><bx:file format="svg" path="adaptive-icon.svg"/></bx:export></defs><path d="M 355.418 316.047 L 665.838 316.047 L 665.838 370.371 L 355.418 370.371 L 355.418 316.047 Z" fill="#ADE2FF" style="" id="object-0"/><path d="M 356.796 494.538 C 356.796 477.394 370.695 463.497 387.839 463.497 L 636.175 463.497 C 653.32 463.497 667.217 477.394 667.217 494.538 L 667.217 638.108 C 667.217 668.11 642.895 692.432 612.893 692.432 L 411.12 692.432 C 381.118 692.432 356.796 668.11 356.796 638.108 L 356.796 494.538 Z" fill="#ADE2FF" style="" id="object-1"/><path fill-rule="evenodd" clip-rule="evenodd" d="M 347.64 305.481 C 350.815 302.309 355.122 300.526 359.612 300.526 L 664.388 300.526 C 668.879 300.526 673.186 302.309 676.362 305.481 C 679.537 308.654 681.321 312.957 681.321 317.444 L 681.321 368.197 C 681.321 372.684 679.537 376.987 676.362 380.161 C 673.186 383.334 668.879 385.116 664.388 385.116 L 359.612 385.116 C 355.122 385.116 350.815 383.334 347.64 380.161 C 344.465 376.987 342.68 372.684 342.68 368.197 L 342.68 317.444 C 342.68 312.957 344.465 308.654 347.64 305.481 Z M 664.388 317.444 L 359.612 317.444 L 359.612 368.197 L 664.388 368.197 L 664.388 317.444 Z M 368.078 389.345 C 372.753 389.345 376.544 393.132 376.544 397.804 C 376.544 411.478 374.254 421.897 370.558 430.437 C 366.88 438.933 361.998 445.113 357.622 450.305 C 356.957 451.095 356.313 451.851 355.693 452.58 C 352.073 456.835 349.193 460.222 346.918 464.341 C 344.447 468.816 342.68 474.281 342.68 482.394 L 342.68 638.884 C 342.68 656.833 349.816 674.045 362.517 686.736 C 375.218 699.428 392.446 706.556 410.409 706.556 L 613.592 706.556 C 631.555 706.556 648.782 699.428 661.484 686.736 C 674.184 674.045 681.321 656.833 681.321 638.884 L 681.321 482.394 C 681.321 474.281 679.554 468.816 677.084 464.341 C 674.808 460.222 671.928 456.835 668.308 452.58 C 667.687 451.851 667.044 451.095 666.379 450.305 C 662.003 445.113 657.12 438.933 653.444 430.437 C 649.747 421.897 647.457 411.478 647.457 397.804 C 647.457 393.132 651.247 389.345 655.923 389.345 C 660.598 389.345 664.388 393.132 664.388 397.804 C 664.388 409.508 666.331 417.592 668.984 423.722 C 671.658 429.898 675.24 434.555 679.33 439.408 C 679.881 440.06 680.451 440.728 681.036 441.413 C 684.621 445.61 688.741 450.431 691.908 456.168 C 695.786 463.192 698.253 471.475 698.253 482.394 L 698.253 638.884 C 698.253 661.319 689.334 682.834 673.456 698.699 C 657.58 714.561 636.046 723.475 613.592 723.475 L 410.409 723.475 C 387.956 723.475 366.421 714.561 350.545 698.699 C 334.666 682.834 325.748 661.319 325.748 638.884 L 325.748 482.394 C 325.748 471.475 328.214 463.192 332.093 456.168 C 335.26 450.431 339.38 445.61 342.966 441.413 C 343.55 440.728 344.12 440.06 344.67 439.408 C 348.76 434.555 352.344 429.898 355.016 423.722 C 357.669 417.592 359.612 409.508 359.612 397.804 C 359.612 393.132 363.402 389.345 368.078 389.345 Z" fill="#090A0B" style="" id="object-2"/></svg>