<?xml version="1.0" encoding="utf-8"?>
<svg width="1024" height="1024" viewBox="0 0 1024 1024" fill="none" xmlns="http://www.w3.org/2000/svg">
  <rect width="100%" height="100%" fill="#FFFFFF"/>
  <path d="M 206.873 130.154 L 811.777 130.154 L 811.777 236.013 L 206.873 236.013 L 206.873 130.154 Z" fill="#ADE2FF" style=""/>
  <path d="M 209.56 477.975 C 209.56 444.566 236.643 417.484 270.051 417.484 L 753.975 417.484 C 787.383 417.484 814.465 444.566 814.465 477.975 L 814.465 757.743 C 814.465 816.207 767.071 863.601 708.607 863.601 L 315.419 863.601 C 256.955 863.601 209.56 816.207 209.56 757.743 L 209.56 477.975 Z" fill="#ADE2FF" style=""/>
  <path fill-rule="evenodd" clip-rule="evenodd" d="M 191.716 109.565 C 197.904 103.382 206.296 99.909 215.047 99.909 L 808.953 99.909 C 817.704 99.909 826.097 103.382 832.284 109.565 C 838.472 115.748 841.948 124.133 841.948 132.876 L 841.948 231.778 C 841.948 240.521 838.472 248.907 832.284 255.09 C 826.096 261.273 817.704 264.746 808.953 264.746 L 215.047 264.746 C 206.296 264.746 197.904 261.273 191.716 255.09 C 185.528 248.907 182.052 240.521 182.052 231.778 L 182.052 132.876 C 182.052 124.133 185.528 115.748 191.716 109.565 Z M 808.953 132.876 L 215.047 132.876 L 215.047 231.778 L 808.953 231.778 L 808.953 132.876 Z M 231.544 272.987 C 240.655 272.987 248.041 280.367 248.041 289.471 C 248.041 316.116 243.579 336.419 236.376 353.062 C 229.211 369.618 219.696 381.661 211.168 391.779 C 209.872 393.317 208.62 394.79 207.41 396.212 C 200.355 404.505 194.742 411.103 190.31 419.129 C 185.495 427.85 182.052 438.496 182.052 454.308 L 182.052 759.255 C 182.052 794.229 195.957 827.771 220.708 852.501 C 245.458 877.235 279.028 891.125 314.031 891.125 L 709.969 891.125 C 744.972 891.125 778.541 877.235 803.292 852.501 C 828.043 827.771 841.948 794.229 841.948 759.255 L 841.948 454.308 C 841.948 438.496 838.505 427.85 833.69 419.129 C 829.257 411.103 823.645 404.505 816.59 396.212 C 815.38 394.79 814.128 393.317 812.832 391.779 C 804.304 381.661 794.789 369.618 787.625 353.062 C 780.421 336.419 775.959 316.116 775.959 289.471 C 775.959 280.367 783.344 272.987 792.456 272.987 C 801.567 272.987 808.953 280.367 808.953 289.471 C 808.953 312.278 812.739 328.032 817.909 339.978 C 823.117 352.011 830.1 361.087 838.069 370.543 C 839.142 371.815 840.253 373.117 841.393 374.45 C 848.38 382.629 856.406 392.023 862.579 403.204 C 870.138 416.891 874.943 433.031 874.943 454.308 L 874.943 759.255 C 874.943 802.973 857.562 844.899 826.623 875.813 C 795.684 906.724 753.723 924.092 709.969 924.092 L 314.031 924.092 C 270.277 924.092 228.315 906.724 197.377 875.813 C 166.438 844.899 149.057 802.973 149.057 759.255 L 149.057 454.308 C 149.057 433.031 153.863 416.891 161.421 403.204 C 167.594 392.023 175.62 382.629 182.608 374.45 C 183.747 373.117 184.859 371.815 185.93 370.543 C 193.9 361.087 200.883 352.011 206.091 339.978 C 211.261 328.032 215.047 312.278 215.047 289.471 C 215.047 280.367 222.433 272.987 231.544 272.987 Z" fill="#090A0B" style=""/>
</svg>